<svg xmlns="http://www.w3.org/2000/svg" viewBox="0 0 24 24"><g><path fill="#795548" d="M17.64,10.23h-1a7.73,7.73,0,0,0,2.45-4.35,2.28,2.28,0,0,0,0-.27,1.66,1.66,0,0,0-.62-1.31A1.76,1.76,0,0,0,17,3.94,7.76,7.76,0,0,0,14.38,5a7.39,7.39,0,0,0-1-2,1.75,1.75,0,0,0-2.84,0,7.76,7.76,0,0,0-1,2A7.33,7.33,0,0,0,7,4a1.71,1.71,0,0,0-1.42.35,1.66,1.66,0,0,0-.62,1.31A2.61,2.61,0,0,0,5,6,7.6,7.6,0,0,0,7.4,10.23h-1a2.11,2.11,0,0,0-.94,4l1.32,6.2a1.64,1.64,0,0,0,1.59,1.3h7.34a1.64,1.64,0,0,0,1.59-1.3l1.32-6.2a2.11,2.11,0,0,0-.94-4Z"/><path fill="#5d4037" d="M17.64,10.23H6.36a2.11,2.11,0,0,0-.45,4.18,1.73,1.73,0,0,0,.45.05H17.64a1.85,1.85,0,0,0,.46-.05,2.12,2.12,0,0,0-.46-4.18Z"/><path fill="#43a047" d="M18.45 4.3A1.72 1.72 0 0017 3.94 7.66 7.66 0 0014.38 5h0a6.23 6.23 0 01.28 1.15s0 0 0 .07 0 .25 0 .37a5.63 5.63 0 010 .71A7.49 7.49 0 0114.23 10a1.08 1.08 0 01-.08.19H16.6a7.69 7.69 0 002.45-4.35 2.28 2.28 0 000-.27A1.66 1.66 0 0018.45 4.3zM9.76 10a7.51 7.51 0 01-.47-3.46c0-.13 0-.25 0-.37s0 0 0-.06A6.76 6.76 0 019.62 5 7.51 7.51 0 007 3.94a1.72 1.72 0 00-1.42.36 1.66 1.66 0 00-.62 1.31A2.61 2.61 0 005 6 7.6 7.6 0 007.4 10.23H9.84C9.81 10.17 9.79 10.11 9.76 10z"/><path fill="#66bb6a" d="M14.7,6.59c0-.12,0-.25,0-.37s0,0,0-.07A6.23,6.23,0,0,0,14.38,5h0a7.19,7.19,0,0,0-1-2,1.75,1.75,0,0,0-2.84,0,7.39,7.39,0,0,0-1,2,6.76,6.76,0,0,0-.28,1.16s0,0,0,.06,0,.24,0,.37A7.51,7.51,0,0,0,9.76,10c0,.07.05.13.08.19h4.31a1.08,1.08,0,0,0,.08-.19,7.49,7.49,0,0,0,.51-2.74A5.63,5.63,0,0,0,14.7,6.59Z"/></g></svg>